<?xml version="1.0" encoding="UTF-8"?>
<svg xmlns="http://www.w3.org/2000/svg" xmlns:xlink="http://www.w3.org/1999/xlink" viewBox="0 0 104 104" width="104px" height="104px">
<g id="surface2403534">
<path style=" stroke:none;fill-rule:nonzero;fill:rgb(100%,100%,100%);fill-opacity:0.7;" d="M 51.625 -0.125 C 51.453125 -0.09375 51.28125 -0.046875 51.125 0 C 49.265625 0.421875 47.953125 2.09375 48 4 L 48 16 C 47.984375 17.4375 48.734375 18.78125 49.984375 19.515625 C 51.234375 20.234375 52.765625 20.234375 54.015625 19.515625 C 55.265625 18.78125 56.015625 17.4375 56 16 L 56 4 C 56.046875 2.84375 55.578125 1.734375 54.75 0.953125 C 53.90625 0.15625 52.765625 -0.234375 51.625 -0.125 Z M 27.375 6.375 C 26.046875 6.5625 24.90625 7.40625 24.328125 8.609375 C 23.75 9.8125 23.8125 11.21875 24.5 12.375 L 30.5 22.875 C 31.609375 24.8125 34.0625 25.484375 36 24.375 C 37.9375 23.265625 38.609375 20.8125 37.5 18.875 L 31.5 8.375 C 30.6875 6.90625 29.03125 6.109375 27.375 6.375 Z M 75.25 6.375 C 74.078125 6.59375 73.078125 7.328125 72.5 8.375 L 66.5 18.875 C 65.390625 20.8125 66.0625 23.265625 68 24.375 C 69.9375 25.484375 72.390625 24.8125 73.5 22.875 L 79.5 12.375 C 80.265625 11.078125 80.234375 9.453125 79.40625 8.1875 C 78.59375 6.921875 77.125 6.21875 75.625 6.375 C 75.5 6.375 75.375 6.375 75.25 6.375 Z M 93.375 23.875 C 93.25 23.90625 93.125 23.953125 93 24 C 92.515625 24.078125 92.046875 24.25 91.625 24.5 L 81.125 30.5 C 79.1875 31.609375 78.515625 34.0625 79.625 36 C 80.734375 37.9375 83.1875 38.609375 85.125 37.5 L 95.625 31.5 C 97.5 30.703125 98.484375 28.640625 97.90625 26.6875 C 97.328125 24.734375 95.375 23.515625 93.375 23.875 Z M 9.75 24 C 8.015625 24.21875 6.640625 25.53125 6.3125 27.25 C 6 28.96875 6.84375 30.6875 8.375 31.5 L 18.875 37.5 C 20.8125 38.609375 23.265625 37.9375 24.375 36 C 25.484375 34.0625 24.8125 31.609375 22.875 30.5 L 12.375 24.5 C 11.578125 24.03125 10.65625 23.859375 9.75 24 Z M 52 24 C 36.53125 24 24 36.53125 24 52 C 24 67.46875 36.53125 80 52 80 C 67.46875 80 80 67.46875 80 52 C 80 36.53125 67.46875 24 52 24 Z M 52 32 C 63.03125 32 72 40.96875 72 52 C 72 63.03125 63.03125 72 52 72 C 40.96875 72 32 63.03125 32 52 C 32 40.96875 40.96875 32 52 32 Z M 2.875 48 C 0.671875 48.3125 -0.875 50.359375 -0.5625 52.5625 C -0.25 54.765625 1.796875 56.3125 4 56 L 16 56 C 17.4375 56.015625 18.78125 55.265625 19.515625 54.015625 C 20.234375 52.765625 20.234375 51.234375 19.515625 49.984375 C 18.78125 48.734375 17.4375 47.984375 16 48 L 4 48 C 3.875 48 3.75 48 3.625 48 C 3.5 48 3.375 48 3.25 48 C 3.125 48 3 48 2.875 48 Z M 86.875 48 C 84.671875 48.3125 83.125 50.359375 83.4375 52.5625 C 83.75 54.765625 85.796875 56.3125 88 56 L 100 56 C 101.4375 56.015625 102.78125 55.265625 103.515625 54.015625 C 104.234375 52.765625 104.234375 51.234375 103.515625 49.984375 C 102.78125 48.734375 101.4375 47.984375 100 48 L 88 48 C 87.875 48 87.75 48 87.625 48 C 87.5 48 87.375 48 87.25 48 C 87.125 48 87 48 86.875 48 Z M 20.625 65.875 C 20.5 65.90625 20.375 65.953125 20.25 66 C 19.765625 66.078125 19.296875 66.25 18.875 66.5 L 8.375 72.5 C 6.4375 73.609375 5.765625 76.0625 6.875 78 C 7.984375 79.9375 10.4375 80.609375 12.375 79.5 L 22.875 73.5 C 24.75 72.703125 25.734375 70.640625 25.15625 68.6875 C 24.578125 66.734375 22.625 65.515625 20.625 65.875 Z M 82.5 66 C 80.765625 66.21875 79.390625 67.53125 79.0625 69.25 C 78.75 70.96875 79.59375 72.6875 81.125 73.5 L 91.625 79.5 C 93.5625 80.609375 96.015625 79.9375 97.125 78 C 98.234375 76.0625 97.5625 73.609375 95.625 72.5 L 85.125 66.5 C 84.328125 66.03125 83.40625 65.859375 82.5 66 Z M 33.25 79.125 C 32.078125 79.34375 31.078125 80.078125 30.5 81.125 L 24.5 91.625 C 23.390625 93.5625 24.0625 96.015625 26 97.125 C 27.9375 98.234375 30.390625 97.5625 31.5 95.625 L 37.5 85.125 C 38.265625 83.828125 38.234375 82.203125 37.40625 80.9375 C 36.59375 79.671875 35.125 78.96875 33.625 79.125 C 33.5 79.125 33.375 79.125 33.25 79.125 Z M 69.375 79.125 C 68.046875 79.3125 66.90625 80.15625 66.328125 81.359375 C 65.75 82.5625 65.8125 83.96875 66.5 85.125 L 72.5 95.625 C 73.609375 97.5625 76.0625 98.234375 78 97.125 C 79.9375 96.015625 80.609375 93.5625 79.5 91.625 L 73.5 81.125 C 72.6875 79.65625 71.03125 78.859375 69.375 79.125 Z M 51.625 83.875 C 51.453125 83.90625 51.28125 83.953125 51.125 84 C 49.265625 84.421875 47.953125 86.09375 48 88 L 48 100 C 47.984375 101.4375 48.734375 102.78125 49.984375 103.515625 C 51.234375 104.234375 52.765625 104.234375 54.015625 103.515625 C 55.265625 102.78125 56.015625 101.4375 56 100 L 56 88 C 56.046875 86.84375 55.578125 85.734375 54.75 84.953125 C 53.90625 84.15625 52.765625 83.765625 51.625 83.875 Z M 51.625 83.875 "/>
</g>
</svg>
